# xmcd
#
# Track frame offsets:
# 150
# 15715
# 37747
# 51308
# 65631
# 89854
#
# Disc length: 1447 seconds
#
# Revision: 0
# Processed by: cddbd v1.5.2PL0 Copyright (c) Steve Scherf et al.
# Submitted via: Axialis_AX_CDPlayer 2.6
#
DISCID=4e05a506
DTITLE=Steve Young - Australien Tour EP
DYEAR=1900
DGENRE=
TTITLE0=Coyote
TTITLE1=Always Loving You
TTITLE2=Traveling Kind
TTITLE3=Ragtime Blue Guitar
TTITLE4=Love Song
TTITLE5=Silverlake
EXTD=
EXTT0=
EXTT1=
EXTT2=
EXTT3=
EXTT4=
EXTT5=
PLAYORDER=
